<svg width="92" height="21" viewBox="0 0 92 21" fill="none" xmlns="http://www.w3.org/2000/svg">
<g id="Frame 6750">
<g id="Bookimed_logo Copy 46.9">
<g id="Vector">
<path fill-rule="evenodd" clip-rule="evenodd" d="M48.5437 14.6988C48.5437 13.0124 48.5479 11.3259 48.5385 9.63959C48.5373 9.42493 48.5911 9.36962 48.8014 9.37338C49.5676 9.38705 50.3344 9.38412 51.1009 9.37471C51.2759 9.3726 51.3265 9.42062 51.3265 9.60176C51.3209 13.0174 51.3209 16.4331 51.3265 19.8487C51.3265 20.0308 51.2744 20.0772 51.0999 20.0752C50.3253 20.066 49.5501 20.0645 48.7754 20.076C48.5853 20.0789 48.5383 20.0269 48.5392 19.8352C48.5469 18.1231 48.5437 16.4109 48.5437 14.6988Z" fill="black"/>
<path fill-rule="evenodd" clip-rule="evenodd" d="M46.6802 3.32399C46.7166 2.6154 47.04 2.03505 47.7344 1.72972C48.4616 1.40999 49.1393 1.56096 49.7309 2.07844C49.876 2.20535 49.938 2.24432 50.0991 2.08887C50.7306 1.47938 51.676 1.40408 52.382 1.87858C53.077 2.34543 53.3349 3.23969 53.0244 4.11026C52.8069 4.72093 52.3972 5.19755 51.9673 5.65853C51.3522 6.31835 50.6421 6.87618 50.0177 7.52623C49.9547 7.59176 49.9083 7.61536 49.8329 7.53712C49.0079 6.68192 48.0431 5.9704 47.3198 5.01054C46.9546 4.52596 46.6898 4.00144 46.6802 3.32399Z" fill="black"/>
<path fill-rule="evenodd" clip-rule="evenodd" d="M56.0092 10.8104C56.8708 9.77467 57.8733 9.13518 59.1819 9.10728C60.5061 9.07907 61.553 9.58201 62.2323 10.7917C62.709 10.2296 63.2312 9.75621 63.8858 9.44675C65.2266 8.81295 67.0145 9.06922 67.9604 10.0379C68.5569 10.6489 68.7942 11.4093 68.8265 12.2432C68.9255 14.7722 68.8457 17.3025 68.8755 19.8321C68.8775 20.0175 68.8038 20.0363 68.6543 20.0352C67.8715 20.0296 67.0887 20.0259 66.3064 20.0374C66.1165 20.0401 66.0923 19.9683 66.0928 19.8018C66.0968 17.7931 66.0958 15.7844 66.0923 13.7757C66.0913 13.3741 66.0665 12.9734 66.0094 12.5751C65.8569 11.5113 65.0918 11.0222 64.0787 11.3522C63.1939 11.6405 62.81 12.3306 62.6681 13.205C62.5696 13.8143 62.5621 14.4293 62.5631 15.045C62.5656 16.6178 62.558 18.1906 62.5707 19.7633C62.5722 19.999 62.504 20.0415 62.2909 20.0377C61.5333 20.0246 60.7758 20.0256 60.0187 20.0375C59.8283 20.0406 59.7828 19.9892 59.7839 19.798C59.7909 17.8577 59.7884 15.9173 59.7879 13.9769C59.7879 13.4727 59.7707 12.9693 59.701 12.4689C59.5627 11.4763 58.8955 11.1541 58.0369 11.2863C57.1112 11.4288 56.5264 12.0528 56.3547 13.0118C56.2365 13.6715 56.234 14.338 56.2324 15.0041C56.2284 16.594 56.2269 18.1839 56.2365 19.7737C56.238 19.9923 56.1749 20.041 55.9698 20.0376C55.2123 20.0251 54.4547 20.0275 53.6977 20.0364C53.5209 20.0385 53.4522 20.0085 53.4527 19.804C53.4598 16.4021 53.4593 13 53.4532 9.59801C53.4527 9.40484 53.5022 9.35493 53.6906 9.35811C54.3891 9.36991 55.0875 9.36842 55.786 9.35878C55.9577 9.35636 56.0208 9.39381 56.0138 9.58088C55.9986 9.96482 56.0092 10.3498 56.0092 10.8104Z" fill="black"/>
<path fill-rule="evenodd" clip-rule="evenodd" d="M43.7116 13.057C43.5681 13.2113 43.5476 13.3189 43.6563 13.5087C44.8514 15.5953 46.0362 17.6878 47.2232 19.779C47.2639 19.8507 47.2989 19.9257 47.3549 20.035C46.9488 20.035 46.5741 20.035 46.1995 20.035C45.6688 20.035 45.1379 20.0283 44.6074 20.0388C44.4374 20.0422 44.3414 19.9935 44.2556 19.8357C43.4686 18.3871 42.6716 16.9442 41.8777 15.4994C41.7348 15.2394 41.7366 15.2402 41.5351 15.4564C41.2225 15.7917 40.912 16.1291 40.5923 16.4573C40.4897 16.5627 40.4476 16.6698 40.4484 16.8179C40.454 17.8008 40.4453 18.7837 40.4561 19.7665C40.4584 19.9721 40.4172 20.0444 40.1991 20.0404C39.4328 20.0264 38.6659 20.0302 37.8994 20.0387C37.7319 20.0405 37.669 20.0094 37.6692 19.8196C37.6747 15.0591 37.6745 10.2987 37.6697 5.53823C37.6695 5.3594 37.7142 5.30899 37.8921 5.31134C38.6586 5.32145 39.4254 5.32329 40.1918 5.31063C40.3996 5.30714 40.4571 5.36119 40.4563 5.57644C40.4483 7.96944 40.4513 10.3625 40.4513 12.7556C40.4513 12.8475 40.4513 12.9395 40.4513 13.1101C41.2477 12.1899 41.9914 11.3306 42.7353 10.4715C43.0187 10.1441 43.3039 9.81827 43.5858 9.48943C43.6488 9.41589 43.7089 9.36424 43.817 9.3647C44.8945 9.36886 45.972 9.36722 47.0511 9.36722" fill="black"/>
<path fill-rule="evenodd" clip-rule="evenodd" d="M8.98925 16.4195C8.73721 17.1824 8.11267 17.4839 7.36749 17.5531C6.65413 17.6194 5.93778 17.6105 5.42001 17.6072C4.53164 17.6072 3.84109 17.6004 3.15084 17.6117C2.96952 17.6146 2.92946 17.5586 2.93062 17.3821C2.93836 16.2098 2.9373 15.0375 2.93148 13.8652C2.93068 13.7062 2.96082 13.643 3.13527 13.6458C4.40611 13.6656 5.67826 13.6089 6.94779 13.7032C7.53056 13.7465 8.11267 13.821 8.55948 14.2618C9.18327 14.8773 9.2477 15.6369 8.98925 16.4195ZM3.1502 7.78468C3.79841 7.79111 4.44678 7.78746 5.21619 7.78746C5.71803 7.79111 6.34085 7.79013 6.96333 7.82915C7.98926 7.8934 8.58134 8.47575 8.58771 9.43941C8.59398 10.3868 7.93798 11.0604 6.94906 11.1289C5.67053 11.2174 4.39039 11.1618 3.1112 11.1825C2.96149 11.1849 2.93119 11.1309 2.93195 10.9912C2.93706 9.99004 2.93974 8.98886 2.93013 7.98778C2.92836 7.80339 2.99998 7.78319 3.1502 7.78468ZM11.3679 13.489C10.8801 12.8531 10.2098 12.4846 9.42868 12.2364C9.49418 12.1931 9.52043 12.1732 9.5489 12.1572C10.8649 11.4215 11.5711 10.099 11.4176 8.65702C11.2636 7.2098 10.2336 5.98676 8.81769 5.5741C8.03114 5.34484 7.21976 5.32972 6.41247 5.32443C4.35579 5.31086 2.29895 5.32191 0.242172 5.31518C0.0599871 5.31456 -0.000252101 5.35054 7.92375e-07 5.55117C0.00612081 10.3144 0.00612081 15.0776 7.92375e-07 19.8407C-0.000252101 20.0416 0.0604929 20.0775 0.242424 20.0767C2.05471 20.069 3.86705 20.0753 5.67933 20.0679C6.58939 20.0641 7.50021 20.0543 8.40749 19.9729C10.0417 19.8262 11.2102 18.9967 11.8155 17.4426C12.354 16.0603 12.3041 14.7099 11.3679 13.489Z" fill="black"/>
<path fill-rule="evenodd" clip-rule="evenodd" d="M88.3637 16.7676C87.8038 17.9882 86.4877 18.4719 85.3937 17.8535C84.9026 17.5761 84.545 17.1565 84.3791 16.6203C83.9977 15.3856 83.9401 14.1245 84.327 12.8837C84.7175 11.6316 85.9202 10.9969 87.0815 11.3884C87.9206 11.6715 88.3531 12.3291 88.5599 13.1637C88.6879 13.6805 88.7324 14.2088 88.7203 14.6681C88.7273 15.4398 88.6586 16.1247 88.3637 16.7676ZM91.5 5.52626C91.5 5.35658 91.4535 5.31288 91.2896 5.31473C90.5228 5.32322 89.7556 5.3262 88.9888 5.3135C88.7774 5.30995 88.7066 5.34907 88.7081 5.58686C88.7212 7.14578 88.7147 8.70479 88.7147 10.2638C88.7147 10.354 88.7147 10.4442 88.7147 10.5302C88.6823 10.5347 88.6717 10.5395 88.6681 10.5362C88.6135 10.4829 88.5594 10.4293 88.5063 10.3744C88.0576 9.9101 87.5448 9.53948 86.9343 9.33428C84.9066 8.65303 82.496 9.58292 81.6402 12.0484C81.229 13.2339 81.1784 14.462 81.2988 15.6986C81.399 16.7242 81.6893 17.6887 82.2957 18.5364C83.8723 20.7415 86.737 20.9439 88.5442 18.974C88.6626 18.8454 88.7693 18.7062 88.9165 18.53C88.9165 18.9972 88.924 19.4132 88.9124 19.8285C88.9074 20.006 88.9337 20.0819 89.139 20.0776C89.8552 20.0626 90.5719 20.0671 91.2881 20.0754C91.4489 20.0772 91.5 20.038 91.5 19.8655C91.4955 15.0857 91.4955 10.306 91.5 5.52626Z" fill="black"/>
<path fill-rule="evenodd" clip-rule="evenodd" d="M21.1182 16.4621C20.6861 17.4226 19.9672 17.9949 18.9065 18.0103C17.8259 18.0259 17.0507 17.4804 16.6289 16.4917C16.158 15.3878 16.1722 14.2367 16.5636 13.1116C16.9422 12.0231 17.8973 11.3956 18.9979 11.439C20.0243 11.4794 20.911 12.2217 21.2417 13.3163C21.3814 13.7787 21.4157 14.2551 21.4284 14.6987C21.4113 15.3266 21.3641 15.9155 21.1182 16.4621ZM23.5217 11.705C22.5461 10.0897 21.1078 9.24148 19.256 9.13106C17.7942 9.04393 16.4339 9.37261 15.2996 10.3568C14.0064 11.4789 13.492 12.9702 13.4462 14.6574C13.4482 15.0813 13.4878 15.4986 13.5553 15.9128C13.8308 17.6024 14.6372 18.9147 16.1813 19.6919C16.8584 20.0328 17.5766 20.2428 18.3308 20.304C19.6545 20.4115 20.9012 20.1735 21.9986 19.3731C23.4494 18.3152 24.1831 16.8527 24.2731 15.0543C24.3324 13.87 24.142 12.732 23.5217 11.705Z" fill="black"/>
<path fill-rule="evenodd" clip-rule="evenodd" d="M32.9493 16.4755C32.5123 17.4347 31.7895 18.0004 30.729 18.0101C29.6596 18.0199 28.8917 17.4789 28.4708 16.5008C27.996 15.3975 28.0103 14.2466 28.3966 13.1209C28.7764 12.0142 29.7637 11.3742 30.8753 11.4406C31.943 11.5044 32.8386 12.3157 33.1253 13.4781C33.2261 13.8871 33.2529 14.3046 33.266 14.6929C33.2487 15.3243 33.2016 15.9215 32.9493 16.4755ZM35.3575 11.705C34.3819 10.0897 32.9436 9.24148 31.0918 9.13106C29.63 9.04393 28.2697 9.37261 27.1354 10.3568C25.8422 11.4789 25.3278 12.9702 25.282 14.6574C25.284 15.0813 25.3236 15.4986 25.3911 15.9128C25.6666 17.6024 26.4729 18.9147 28.0171 19.6919C28.6942 20.0328 29.4124 20.2428 30.1666 20.304C31.4903 20.4115 32.737 20.1735 33.8344 19.3731C35.2852 18.3152 36.0189 16.8527 36.1089 15.0543C36.1682 13.87 35.9778 12.7321 35.3575 11.705Z" fill="black"/>
<path fill-rule="evenodd" clip-rule="evenodd" d="M75.3021 11.2829C76.3612 11.2761 77.1902 12.063 77.3353 13.2058C77.4041 13.749 77.4041 13.749 76.8776 13.749C76.3556 13.749 75.8336 13.749 75.3117 13.749C74.6804 13.749 74.0487 13.749 73.4175 13.749C73.3265 13.749 73.2359 13.7709 73.2359 13.6172C73.2364 12.3221 74.0492 11.291 75.3021 11.2829ZM73.4209 15.4922C74.4992 15.5006 75.578 15.4963 76.6564 15.4963C77.7433 15.4963 78.8303 15.4908 79.9172 15.5013C80.1144 15.5032 80.1539 15.4421 80.1468 15.2547C80.1246 14.656 80.1139 14.057 80.0143 13.4645C79.8418 12.4386 79.5257 11.4746 78.8343 10.6764C78.0134 9.7281 76.9588 9.26666 75.7389 9.14406C73.4628 8.91516 71.6759 10.0463 70.8611 11.9674C70.2293 13.4561 70.197 15.0134 70.5348 16.5727C70.814 17.8623 71.4498 18.9392 72.5995 19.6355C73.5908 20.2358 74.6863 20.3804 75.8112 20.3186C77.7696 20.2112 79.157 19.2595 79.9081 17.3918C79.9926 17.1815 79.947 17.1189 79.7331 17.087C78.9678 16.9729 78.2041 16.8488 77.4424 16.7103C77.2745 16.6798 77.2153 16.7068 77.1561 16.8727C76.7353 18.0558 75.6109 18.5155 74.5012 17.9512C73.6075 17.4967 73.2838 16.6819 73.1897 15.7286C73.1695 15.5242 73.2383 15.4908 73.4209 15.4922Z" fill="black"/>
</g>
<path id="Vector_2" fill-rule="evenodd" clip-rule="evenodd" d="M46.1406 2.28687C46.1846 1.36693 46.5752 0.613495 47.414 0.21709C48.2925 -0.198002 49.1111 -0.00200119 49.8257 0.669819C50.001 0.834588 50.0759 0.885173 50.2705 0.683366C51.0333 -0.107909 52.1752 -0.205676 53.0281 0.410354C53.8676 1.01644 54.1792 2.17743 53.804 3.30765C53.5413 4.10046 53.0465 4.71923 52.5271 5.31771C51.7842 6.17432 50.9264 6.89852 50.1721 7.74245C50.0961 7.82754 50.04 7.85817 49.9489 7.7566C48.9523 6.64633 47.787 5.72259 46.9132 4.47645C46.4721 3.84734 46.1522 3.16637 46.1406 2.28687Z" fill="#A3CC0E"/>
</g>
</g>
</svg>
