<svg width="24" height="24" viewBox="0 0 24 24" fill="none" xmlns="http://www.w3.org/2000/svg">
<g id="Flag/TR">
<g id="flag">
<mask id="mask0_2756_132794" style="mask-type:luminance" maskUnits="userSpaceOnUse" x="2" y="4" width="20" height="16">
<rect id="mask" x="2" y="4.5" width="20" height="15" fill="white"/>
</mask>
<g mask="url(#mask0_2756_132794)">
<g id="contents">
<path id="background" fill-rule="evenodd" clip-rule="evenodd" d="M2 4.5V19.5H22V4.5H2Z" fill="#E31D1C"/>
<mask id="mask1_2756_132794" style="mask-type:luminance" maskUnits="userSpaceOnUse" x="2" y="4" width="20" height="16">
<path id="background_2" fill-rule="evenodd" clip-rule="evenodd" d="M2 4.5V19.5H22V4.5H2Z" fill="white"/>
</mask>
<g mask="url(#mask1_2756_132794)">
<path id="Combined shape 1695" fill-rule="evenodd" clip-rule="evenodd" d="M12.0197 14.5714C10.6814 14.2417 9.63321 13.1215 9.64538 11.4794C9.65677 9.94227 10.5874 8.64298 12.0586 8.29126C13.5299 7.93953 14.8251 8.68616 14.8251 8.68616C14.4185 7.72628 13.0059 7.05194 11.8478 7.05387C9.69202 7.05749 7.39397 8.80576 7.37416 11.4794C7.35363 14.2513 9.83503 15.8299 12.0174 15.8262C13.767 15.8233 14.5968 14.6263 14.7687 14.1171C14.7687 14.1171 13.3581 14.9011 12.0197 14.5714ZM15.0698 10.9498L13.7363 11.4396L15.2408 11.9703L15.2152 13.5562L16.2065 12.3665L17.8441 12.4854L16.5464 11.37L17.3983 10.1801L16.0112 10.647L15.0197 9.54472L15.0698 10.9498Z" fill="#F7FCFF"/>
</g>
</g>
</g>
</g>
</g>
</svg>
