<svg width="20" height="20" viewBox="0 0 20 20" fill="none" xmlns="http://www.w3.org/2000/svg">
<g id="Base/AirplaneTilt">
<path id="Vector" d="M16.3672 6.2806L13.7422 8.74935L16.2422 15.6243L14.3672 17.4993L10.6328 12.0306L8.74219 13.7493V15.6243L6.86719 17.4993L5.75781 14.2259L2.49219 13.1243L4.36719 11.2493H6.24219L8.11719 9.37435L2.49219 5.62435L4.36719 3.74935L11.2422 6.24935L13.7187 3.63216L13.6641 3.67122C14.0163 3.31898 14.494 3.12109 14.9922 3.12109C15.4903 3.12109 15.9681 3.31898 16.3203 3.67122C16.6726 4.02346 16.8704 4.5012 16.8704 4.99935C16.8704 5.49749 16.6726 5.97523 16.3203 6.32747L16.3672 6.2806Z" stroke="#98A2B3" stroke-width="1.5" stroke-linecap="round" stroke-linejoin="round"/>
</g>
</svg>
