<svg width="20" height="20" viewBox="0 0 20 20" fill="none" xmlns="http://www.w3.org/2000/svg">
<g id="award-05">
<path id="Icon" d="M5.94583 9.3235L2.77521 3.64978C2.41064 2.99739 2.22835 2.67119 2.25907 2.40412C2.28587 2.17111 2.40963 1.96018 2.59996 1.82312C2.81811 1.66602 3.19179 1.66602 3.93913 1.66602H5.80148C6.07923 1.66602 6.21811 1.66602 6.34267 1.70613C6.45289 1.74162 6.55451 1.7997 6.64104 1.87665C6.73882 1.96361 6.80931 2.08327 6.95029 2.32258L9.99996 7.49935L13.0496 2.32258C13.1906 2.08327 13.2611 1.96361 13.3589 1.87665C13.4454 1.7997 13.547 1.74162 13.6573 1.70613C13.7818 1.66602 13.9207 1.66602 14.1984 1.66602H16.0608C16.8081 1.66602 17.1818 1.66602 17.4 1.82312C17.5903 1.96018 17.7141 2.17111 17.7409 2.40412C17.7716 2.67119 17.5893 2.99739 17.2247 3.64978L14.0541 9.3235M8.74997 11.666L9.99996 10.8327V14.9993M8.9583 14.9993H11.0416M13.8301 9.08585C15.9455 11.2012 15.9455 14.6308 13.8301 16.7462C11.7148 18.8615 8.28515 18.8615 6.1698 16.7462C4.05446 14.6308 4.05446 11.2012 6.1698 9.08585C8.28513 6.97052 11.7148 6.97052 13.8301 9.08585Z" stroke="#3B82F6" stroke-width="1.5" stroke-linecap="round" stroke-linejoin="round"/>
</g>
</svg>
