<svg width="14.000000" height="18.167969" viewBox="0 0 14 18.168" fill="none" xmlns="http://www.w3.org/2000/svg" xmlns:xlink="http://www.w3.org/1999/xlink">
	<desc>
			Created with Pixso.
	</desc>
	<defs/>
	<path id="Icon" d="M3.55 11.96L2.83 17.41L6.65 15.12C6.78 15.04 6.84 15 6.91 14.99C6.96 14.98 7.03 14.98 7.08 14.99C7.15 15 7.21 15.04 7.34 15.12L11.16 17.41L10.44 11.96M11.37 3.31L12.46 3.76C12.77 3.89 13.02 4.14 13.15 4.45C13.28 4.76 13.28 5.11 13.15 5.42L12.7 6.51C12.57 6.82 12.57 7.17 12.7 7.48L13.15 8.57C13.21 8.73 13.24 8.89 13.24 9.06C13.24 9.22 13.21 9.39 13.15 9.54C13.08 9.7 12.99 9.84 12.87 9.96C12.75 10.08 12.61 10.17 12.46 10.23L11.37 10.68C11.06 10.81 10.81 11.06 10.68 11.37L10.23 12.46C10.1 12.77 9.85 13.02 9.54 13.15C9.23 13.28 8.88 13.28 8.57 13.15L7.48 12.7C7.17 12.57 6.82 12.57 6.51 12.7L5.42 13.15C5.11 13.28 4.76 13.28 4.45 13.15C4.14 13.02 3.89 12.77 3.76 12.46L3.31 11.37C3.18 11.06 2.93 10.81 2.62 10.68L1.53 10.23C1.22 10.1 0.97 9.85 0.84 9.54C0.71 9.23 0.71 8.88 0.84 8.57L1.29 7.48C1.42 7.17 1.42 6.82 1.29 6.51L0.84 5.42C0.78 5.26 0.75 5.1 0.75 4.93C0.75 4.76 0.78 4.6 0.84 4.45C0.91 4.29 1 4.15 1.12 4.03C1.24 3.91 1.38 3.82 1.53 3.76L2.62 3.31C2.93 3.18 3.18 2.93 3.31 2.62L3.76 1.53C3.89 1.22 4.14 0.97 4.45 0.84C4.76 0.71 5.11 0.71 5.42 0.84L6.51 1.29C6.82 1.42 7.17 1.42 7.48 1.29L8.57 0.84C8.88 0.71 9.23 0.71 9.54 0.84C9.86 0.97 10.1 1.22 10.23 1.53L10.68 2.62L10.68 2.62C10.81 2.93 11.06 3.18 11.37 3.31Z" stroke="#98A1B2" stroke-opacity="1.000000" stroke-width="1.500000" stroke-linejoin="round" stroke-linecap="round"/>
</svg>
