<svg width="20" height="20" viewBox="0 0 20 20" fill="none" xmlns="http://www.w3.org/2000/svg">
<g id="graduation-hat-02">
<path id="Icon" d="M14.1666 12.0843V9.57964C14.1666 9.43007 14.1666 9.35529 14.1439 9.28927C14.1237 9.23088 14.0908 9.1777 14.0476 9.13358C13.9988 9.08369 13.9319 9.05024 13.7981 8.98335L9.99996 7.08428M3.33329 7.91762V13.5898C3.33329 13.8997 3.33329 14.0547 3.38164 14.1904C3.42438 14.3103 3.49404 14.4189 3.58527 14.5077C3.68847 14.6082 3.82935 14.6728 4.11109 14.8019L9.44442 17.2463C9.64878 17.34 9.75096 17.3868 9.85741 17.4053C9.95174 17.4217 10.0482 17.4217 10.1425 17.4053C10.249 17.3868 10.3511 17.34 10.5555 17.2463L15.8888 14.8019C16.1706 14.6728 16.3114 14.6082 16.4146 14.5077C16.5059 14.4189 16.5755 14.3103 16.6183 14.1904C16.6666 14.0547 16.6666 13.8997 16.6666 13.5898V7.91762M1.66663 7.08428L9.70182 3.06669C9.81114 3.01203 9.86579 2.9847 9.92313 2.97394C9.97391 2.96442 10.026 2.96442 10.0768 2.97394C10.1341 2.9847 10.1888 3.01203 10.2981 3.06669L18.3333 7.08428L10.2981 11.1019C10.1888 11.1565 10.1341 11.1839 10.0768 11.1946C10.026 11.2042 9.97391 11.2042 9.92313 11.1946C9.86579 11.1839 9.81114 11.1565 9.70182 11.1019L1.66663 7.08428Z" stroke="#98A2B3" stroke-width="1.5" stroke-linecap="round" stroke-linejoin="round"/>
</g>
</svg>
