<svg width="21" height="20" viewBox="0 0 21 20" fill="none" xmlns="http://www.w3.org/2000/svg">
<g id="Base/plus">
<path id="Vector" d="M17.1667 10.8333H11.3333V16.6667C11.3333 17.125 10.9583 17.5 10.5 17.5C10.0417 17.5 9.66667 17.125 9.66667 16.6667V10.8333H3.83333C3.375 10.8333 3 10.4583 3 10C3 9.54167 3.375 9.16667 3.83333 9.16667H9.66667V3.33333C9.66667 2.875 10.0417 2.5 10.5 2.5C10.9583 2.5 11.3333 2.875 11.3333 3.33333V9.16667H17.1667C17.625 9.16667 18 9.54167 18 10C18 10.4583 17.625 10.8333 17.1667 10.8333Z" fill="white"/>
</g>
</svg>
