<svg width="20" height="20" viewBox="0 0 20 20" fill="none" xmlns="http://www.w3.org/2000/svg">
<g id="Base/medical procedure">
<path id="Vector" d="M10 9.0625V13.4375" stroke="#15803D" stroke-width="1.5" stroke-linecap="round" stroke-linejoin="round"/>
<path id="Vector_2" d="M12.1875 11.25H7.8125" stroke="#15803D" stroke-width="1.5" stroke-linecap="round" stroke-linejoin="round"/>
<path id="Vector_3" d="M16.875 5.625H3.125C2.77982 5.625 2.5 5.90482 2.5 6.25V16.25C2.5 16.5952 2.77982 16.875 3.125 16.875H16.875C17.2202 16.875 17.5 16.5952 17.5 16.25V6.25C17.5 5.90482 17.2202 5.625 16.875 5.625Z" stroke="#15803D" stroke-width="1.5" stroke-linecap="round" stroke-linejoin="round"/>
<path id="Vector_4" d="M13.125 5.625V4.375C13.125 4.04348 12.9933 3.72554 12.7589 3.49112C12.5245 3.2567 12.2065 3.125 11.875 3.125H8.125C7.79348 3.125 7.47554 3.2567 7.24112 3.49112C7.0067 3.72554 6.875 4.04348 6.875 4.375V5.625" stroke="#15803D" stroke-width="1.5" stroke-linecap="round" stroke-linejoin="round"/>
</g>
</svg>
