<svg width="16" height="12" viewBox="0 0 16 12" fill="none" xmlns="http://www.w3.org/2000/svg">
<g id="GB-UKM - United Kingdom">
<g id="flag">
<mask id="mask0_3134_2655" style="mask-type:alpha" maskUnits="userSpaceOnUse" x="0" y="0" width="16" height="12">
<rect id="mask" width="16" height="12" fill="white"/>
</mask>
<g mask="url(#mask0_3134_2655)">
<g id="contents">
<path id="background" fill-rule="evenodd" clip-rule="evenodd" d="M0 0V12H16V0H0Z" fill="#2E42A5"/>
<mask id="mask1_3134_2655" style="mask-type:alpha" maskUnits="userSpaceOnUse" x="0" y="0" width="16" height="12">
<path id="background_2" fill-rule="evenodd" clip-rule="evenodd" d="M0 0V12H16V0H0Z" fill="white"/>
</mask>
<g mask="url(#mask1_3134_2655)">
<g id="mark 1">
<mask id="mask2_3134_2655" style="mask-type:alpha" maskUnits="userSpaceOnUse" x="0" y="0" width="16" height="12">
<rect id="mask_2" width="16" height="12" fill="white"/>
</mask>
<g mask="url(#mask2_3134_2655)">
<g id="contents_2">
<g id="stripe">
<path id="white" d="M-1.7832 11.1438L1.73764 12.6328L16.0783 1.62L17.9354 -0.592738L14.1704 -1.09042L8.32119 3.65532L3.61319 6.85284L-1.7832 11.1438Z" fill="white"/>
<path id="red" d="M-1.30078 12.1867L0.492927 13.0508L17.2689 -0.798689H14.7504L-1.30078 12.1867Z" fill="#F50100"/>
</g>
<g id="stripe_2">
<path id="white_2" d="M17.7792 11.1438L14.2583 12.6328L-0.0822887 1.62L-1.93945 -0.592738L1.82558 -1.09042L7.67478 3.65532L12.3828 6.85284L17.7792 11.1438Z" fill="white"/>
<path id="red_2" d="M17.66 11.8937L15.8663 12.7578L8.72292 6.82813L6.60506 6.16563L-2.11716 -0.583973H0.401415L9.11873 6.00542L11.4342 6.79984L17.66 11.8937Z" fill="#F50100"/>
</g>
<g id="cross">
<g id="red_3">
<mask id="path-9-inside-1_3134_2655" fill="white">
<path fill-rule="evenodd" clip-rule="evenodd" d="M9.88715 -1H6.10938V4H-0.988281V8H6.10938V13H9.88715V8H17.0117V4H9.88715V-1Z"/>
</mask>
<path fill-rule="evenodd" clip-rule="evenodd" d="M9.88715 -1H6.10938V4H-0.988281V8H6.10938V13H9.88715V8H17.0117V4H9.88715V-1Z" fill="#F50100"/>
<path d="M6.10938 -1V-2H5.10938V-1H6.10938ZM9.88715 -1H10.8872V-2H9.88715V-1ZM6.10938 4V5H7.10938V4H6.10938ZM-0.988281 4V3H-1.98828V4H-0.988281ZM-0.988281 8H-1.98828V9H-0.988281V8ZM6.10938 8H7.10938V7H6.10938V8ZM6.10938 13H5.10938V14H6.10938V13ZM9.88715 13V14H10.8872V13H9.88715ZM9.88715 8V7H8.88715V8H9.88715ZM17.0117 8V9H18.0117V8H17.0117ZM17.0117 4H18.0117V3H17.0117V4ZM9.88715 4H8.88715V5H9.88715V4ZM6.10938 0H9.88715V-2H6.10938V0ZM7.10938 4V-1H5.10938V4H7.10938ZM-0.988281 5H6.10938V3H-0.988281V5ZM0.0117188 8V4H-1.98828V8H0.0117188ZM6.10938 7H-0.988281V9H6.10938V7ZM7.10938 13V8H5.10938V13H7.10938ZM9.88715 12H6.10938V14H9.88715V12ZM8.88715 8V13H10.8872V8H8.88715ZM17.0117 7H9.88715V9H17.0117V7ZM16.0117 4V8H18.0117V4H16.0117ZM9.88715 5H17.0117V3H9.88715V5ZM8.88715 -1V4H10.8872V-1H8.88715Z" fill="white" mask="url(#path-9-inside-1_3134_2655)"/>
</g>
</g>
</g>
</g>
</g>
</g>
</g>
</g>
</g>
</g>
</svg>
